<svg width="64" height="64" version="1.1" viewBox="0 0 16.9 16.9" xmlns="http://www.w3.org/2000/svg">
 <g>
  <rect x="-1.73e-18" y="-1.73e-18" width="16.9" height="16.9" ry="4.23" fill="#284b72"/>
  <text fill="black" font-family="sans-serif" font-size="10.6px" letter-spacing="0px" word-spacing="0px" style="line-height:1.25;shape-inside:url(#rect848);white-space:pre" xml:space="preserve"/>
  <g transform="translate(-.265 -.265)">
   <rect x="2.38" y="5.56" width="10.6" height="9.52" fill="#fff"/>
   <rect x="12.2" y="5.56" width="2.91" height="9.52" fill="#b4cbe5"/>
   <rect x="2.38" y="2.38" width="12.7" height="3.18" fill="#1f3a58"/>
   <rect x="13" y="9" width="1.32" height=".529" fill="#333"/>
   <rect x="13" y="6.88" width="1.32" height=".529" fill="#333"/>
   <rect x="13" y="11.1" width="1.32" height=".529" fill="#333"/>
   <rect x="9.79" y="9" width="1.32" height=".529" fill="#333"/>
   <rect x="9.79" y="6.88" width="1.32" height=".529" fill="#333"/>
   <rect x="9.79" y="11.1" width="1.32" height=".529" fill="#333"/>
   <rect x="6.61" y="9" width="1.32" height=".529" fill="#333"/>
   <rect x="6.61" y="6.88" width="1.32" height=".529" fill="#333"/>
   <rect x="6.61" y="11.1" width="1.32" height=".529" fill="#333"/>
   <rect x="3.44" y="9" width="1.32" height=".529" fill="#333"/>
   <rect x="3.44" y="11.1" width="1.32" height=".529" fill="#333"/>
   <rect x="9.79" y="13.2" width="1.32" height=".529" fill="#333"/>
   <rect x="6.61" y="13.2" width="1.32" height=".529" fill="#333"/>
   <rect x="3.44" y="13.2" width="1.32" height=".529" fill="#333"/>
  </g>
 </g>
</svg>
